<svg xmlns="http://www.w3.org/2000/svg" viewBox="0 0 512 512">
  <defs>
    <linearGradient id="bg" x1="0%" y1="0%" x2="100%" y2="100%">
      <stop offset="0%" style="stop-color:#1a1a35"/>
      <stop offset="100%" style="stop-color:#0f0f23"/>
    </linearGradient>
    <linearGradient id="gold" x1="0%" y1="0%" x2="100%" y2="100%">
      <stop offset="0%" style="stop-color:#f0d060"/>
      <stop offset="50%" style="stop-color:#d4af37"/>
      <stop offset="100%" style="stop-color:#b8960c"/>
    </linearGradient>
  </defs>
  <rect width="512" height="512" rx="96" fill="url(#bg)"/>
  <!-- Spade symbol -->
  <path d="M256 100 C256 100 160 200 160 270 C160 310 190 340 230 340 C245 340 255 335 256 330 C257 335 267 340 282 340 C322 340 352 310 352 270 C352 200 256 100 256 100Z" fill="url(#gold)"/>
  <rect x="244" y="320" width="24" height="60" rx="4" fill="url(#gold)"/>
  <!-- Stars -->
  <circle cx="130" cy="130" r="12" fill="#d4af37" opacity="0.6"/>
  <circle cx="382" cy="130" r="8" fill="#d4af37" opacity="0.4"/>
  <circle cx="400" cy="380" r="10" fill="#d4af37" opacity="0.5"/>
  <circle cx="112" cy="400" r="7" fill="#d4af37" opacity="0.3"/>
</svg>
